<?xml version="1.0" encoding="utf-8"?>
<!-- Generator: Adobe Illustrator 26.0.0, SVG Export Plug-In . SVG Version: 6.00 Build 0)  -->
<svg version="1.1" id="Capa_1" xmlns="http://www.w3.org/2000/svg" xmlns:xlink="http://www.w3.org/1999/xlink" x="0px" y="0px"
	 viewBox="0 0 60 60" style="enable-background:new 0 0 60 60;" xml:space="preserve">
<style type="text/css">
	.st0{fill:#EEBFB9;}
</style>
<g id="XMLID_44398_">
	<path id="XMLID_44402_" class="st0" d="M37.6,21.5L37.6,21.5c0.2-0.1,0.3-0.3,0.4-0.5h0c0.3-0.4,0.6-0.9,0.8-1.4
		c0.2-0.5,0.2-1,0.2-1.5c0-2.5-1.9-4.5-4.2-4.5c-1.4,0-2.6,0.7-3.4,1.9c-0.8-1.1-2-1.9-3.4-1.9c-2.3,0-4.2,2-4.2,4.5
		c0,0.5,0.1,1,0.2,1.5c0.2,0.6,0.5,1.2,1,1.6c0,0,0,0,0,0l5.9,6.3l0,0c0.1,0.1,0.3,0.2,0.5,0.2c0.2,0,0.3-0.1,0.5-0.2l0,0L37.6,21.5
		z M37.2,20.3c-0.1,0.1-0.2,0.3-0.4,0.4l0,0l-5.4,5.7l-5.6-5.9c-0.3-0.4-0.6-0.8-0.7-1.2c-0.1-0.4-0.2-0.7-0.2-1.1
		c0-0.9,0.3-1.7,0.9-2.4c0.6-0.6,1.4-1,2.2-1c1.2,0,2.3,0.8,2.9,2c0.1,0.2,0.3,0.4,0.6,0.4c0.2,0,0.5-0.1,0.6-0.4
		c0.5-1.2,1.6-2,2.9-2c0.8,0,1.6,0.3,2.2,1c0.6,0.6,0.9,1.5,0.9,2.4c0,0.4-0.1,0.8-0.2,1.1C37.7,19.6,37.5,19.9,37.2,20.3z"/>
	<path id="XMLID_44399_" class="st0" d="M13,34.5l0,5.8c0,0,0,0.1,0,0.1v0.5c0,0.4,0.3,0.7,0.7,0.7c0.6,0,1.5,0.2,2.8,0.5l0.2,0.1
		c0,0,0,0,0.1,0c3.6,0.9,11,3,15.2,4.1l0.1,0c0,0,0,0,0,0c0.2,0,0.4,0.1,0.6,0.1c0.3,0,0.7-0.1,1-0.2l0.1,0c0.1,0,0.1-0.1,0.2-0.1
		l11.6-8.9c0.2-0.1,0.4-0.3,0.6-0.5c0,0,0,0,0,0c0.5-0.5,0.8-1.2,0.8-2c0-1.5-1.1-2.7-2.5-2.9c-0.3-0.1-0.5-0.1-0.9,0
		c-0.1,0-0.2,0-0.4,0.1c-0.1,0-0.3,0.1-0.4,0.2c-0.1,0-0.1,0.1-0.2,0.1c0,0,0,0-0.1,0l-1.3,1l-7,4.8c-0.1,0-0.2,0-0.3,0
		c-0.3-0.1-1.4-0.4-4.4-1.2l-0.1,0c-0.6-0.2-1.1-0.3-1.7-0.5l-1.6-0.5c-0.4-0.2-0.6-0.7-0.6-1.1c0-0.6,0.4-1.2,1-1.3h4.4
		c1.1,0,2-0.9,2-2c0-1.1-0.9-2-2-2h-4.8c-0.6,0-1.4,0-2.3,0c-2.3,0-3.9,1-5.1,1.9c-0.3,0.2-0.6,0.5-0.9,0.7c-1.4,1.1-2.5,2-4.2,2
		c-0.2,0-0.4,0.1-0.6,0.3C13,34.2,13,34.4,13,34.5z M14.4,40.2l0-0.7v-4.5c1.8-0.2,3.1-1.2,4.4-2.3c0.3-0.2,0.6-0.5,0.9-0.7
		c1.1-0.8,2.4-1.6,4.3-1.6c1,0,1.7,0,2.3,0h4.8c0.3,0,0.6,0.3,0.6,0.7c0,0.4-0.3,0.7-0.6,0.7h-4.5c0,0-0.1,0-0.1,0
		c-1.3,0.2-2.2,1.4-2.2,2.7c0,1,0.5,1.9,1.3,2.4c0.1,0,0.1,0.1,0.2,0.1l1.8,0.5c0.5,0.1,1.1,0.3,1.7,0.5l0.1,0
		c2.7,0.8,4.2,1.2,4.5,1.3c0,0,0.1,0,0.1,0c0.3,0,0.6,0,0.9-0.1c0.1,0,0.2-0.1,0.2-0.1l7.1-4.9c0,0,0,0,0,0l1.2-1c0,0,0,0,0,0
		c0,0,0.1,0,0.1-0.1c0.1,0,0.1-0.1,0.2-0.1c0,0,0.1,0,0.1,0c0.1,0,0.3,0,0.4,0c0,0,0.1,0,0.1,0c0.7,0.1,1.2,0.7,1.2,1.5
		c0,0.4-0.1,0.8-0.4,1.1c0,0,0,0,0,0c-0.1,0.1-0.2,0.2-0.3,0.3c0,0-0.1,0-0.1,0.1l-11.5,8.9l-0.1,0c-0.3,0.1-0.6,0.1-0.8,0.1l0,0
		c-4.1-1.1-11.6-3.1-15.2-4.1l-0.2-0.1c0,0,0,0-0.1,0C15.8,40.5,15,40.3,14.4,40.2C14.4,40.2,14.4,40.2,14.4,40.2z"/>
</g>
</svg>
