<?xml version="1.0" encoding="utf-8"?>
<!-- Generator: Adobe Illustrator 26.0.0, SVG Export Plug-In . SVG Version: 6.00 Build 0)  -->
<svg version="1.1" id="Layer_1" xmlns="http://www.w3.org/2000/svg" xmlns:xlink="http://www.w3.org/1999/xlink" x="0px" y="0px"
	 viewBox="0 0 512 512" style="enable-background:new 0 0 512 512;" xml:space="preserve">
<style type="text/css">
	.st0{fill:#B03724;}
</style>
<path class="st0" d="M490.7,405.3v-42.7c-0.2-121.3-92.6-222.5-213.3-233.6v-28.3C297.7,89,304.7,62.9,293,42.5
	c-11.8-20.4-37.9-27.4-58.3-15.6S207.3,64.7,219,85.1c3.7,6.5,9.1,11.9,15.6,15.6V129C113.9,140.2,21.5,241.4,21.3,362.7v42.7
	C9.6,405.3,0,414.9,0,426.7C0,438.4,9.6,448,21.3,448h469.3c11.8,0,21.3-9.6,21.3-21.3C512,414.9,502.4,405.3,490.7,405.3z
	 M64,362.7c10.1-254.6,374-254.4,384,0v42.7H64V362.7z"/>
</svg>
